<?xml version="1.0" encoding="UTF-8"?>
<svg version="1.1" xmlns="http://www.w3.org/2000/svg" width="80" height="80">
<path d="M0 0 C6.67100892 -0.10192421 13.34181493 -0.17168442 20.01342773 -0.21972656 C22.28010563 -0.23976707 24.54673232 -0.26700711 26.81323242 -0.30175781 C30.08264856 -0.35060868 33.35137757 -0.37304512 36.62109375 -0.390625 C37.62458359 -0.41127014 38.62807343 -0.43191528 39.66197205 -0.45318604 C49.24008596 -0.45619939 56.26534231 2.57484397 63.2734375 9.06640625 C68.76980624 15.22184183 70.35248467 22.30311304 70.19921875 30.35546875 C69.49253291 39.73637683 64.92162446 45.81164554 58 52 C50.80739552 57.39098871 41.55063338 56.98065614 33 56 C26.02457073 53.95266621 20.45263488 49.71044135 16 44 C15.484375 42.906875 14.96875 41.81375 14.4375 40.6875 C13.963125 39.800625 13.48875 38.91375 13 38 C11.52853516 37.61908203 11.52853516 37.61908203 10.02734375 37.23046875 C7 36 7 36 5.7578125 33.1015625 C5.54898437 31.95429687 5.34015625 30.80703125 5.125 29.625 C4.90070312 28.48289062 4.67640625 27.34078125 4.4453125 26.1640625 C4 23 4 23 4 19 C7.3 19 10.6 19 14 19 C14 18.34 14 17.68 14 17 C10.37 17 6.74 17 3 17 C2.49255577 15.10614563 1.99435426 13.20981334 1.5 11.3125 C1.2215625 10.25675781 0.943125 9.20101563 0.65625 8.11328125 C0.05766551 5.27356794 -0.05127345 2.88199527 0 0 Z " fill="#4CFC56" transform="translate(4,12)"/>
<path d="M0 0 C6.67100892 -0.10192421 13.34181493 -0.17168442 20.01342773 -0.21972656 C22.28010563 -0.23976707 24.54673232 -0.26700711 26.81323242 -0.30175781 C30.08264856 -0.35060868 33.35137757 -0.37304512 36.62109375 -0.390625 C37.62458359 -0.41127014 38.62807343 -0.43191528 39.66197205 -0.45318604 C49.24008596 -0.45619939 56.26534231 2.57484397 63.2734375 9.06640625 C68.76980624 15.22184183 70.35248467 22.30311304 70.19921875 30.35546875 C69.49253291 39.73637683 64.92162446 45.81164554 58 52 C50.80739552 57.39098871 41.55063338 56.98065614 33 56 C26.02457073 53.95266621 20.45263488 49.71044135 16 44 C15.484375 42.906875 14.96875 41.81375 14.4375 40.6875 C13.963125 39.800625 13.48875 38.91375 13 38 C11.52853516 37.61908203 11.52853516 37.61908203 10.02734375 37.23046875 C7 36 7 36 5.7578125 33.1015625 C5.54898437 31.95429687 5.34015625 30.80703125 5.125 29.625 C4.90070312 28.48289062 4.67640625 27.34078125 4.4453125 26.1640625 C4 23 4 23 4 19 C7.3 19 10.6 19 14 19 C14 18.34 14 17.68 14 17 C10.37 17 6.74 17 3 17 C2.49255577 15.10614563 1.99435426 13.20981334 1.5 11.3125 C1.2215625 10.25675781 0.943125 9.20101563 0.65625 8.11328125 C0.05766551 5.27356794 -0.05127345 2.88199527 0 0 Z M24.20141602 6.25317383 C21.91500141 6.81805853 19.62331936 7.35616312 17.33007812 7.89257812 C15.87461674 8.24582041 14.41952302 8.60058186 12.96484375 8.95703125 C11.93688942 9.19629082 11.93688942 9.19629082 10.88816833 9.44038391 C8.7799079 9.94447606 8.7799079 9.94447606 6 11 C5.67 11.99 5.34 12.98 5 14 C9.29 14 13.58 14 18 14 C17.505 14.94875 17.01 15.8975 16.5 16.875 C14.85575631 19.72278166 14.85575631 19.72278166 15 22 C12.36 22 9.72 22 7 22 C7.66264086 28.06264222 7.66264086 28.06264222 9 34 C9.886875 33.95875 10.77375 33.9175 11.6875 33.875 C15 35 15 35 16.30078125 37.1171875 C17.11487052 38.90447143 17.92193346 40.69496918 18.72265625 42.48828125 C21.51191653 47.97297348 26.4702754 50.59577191 32 53 C38.83290857 55.03838869 45.75899761 54.96464943 52.25 51.9375 C58.77241656 48.2459574 64.27191238 43.64031134 66.56640625 36.30078125 C68.36249913 26.7701623 67.15570385 18.87699686 61.9375 10.8125 C57.41557219 5.8708723 51.3999238 2.93891535 44.734375 2.62890625 C37.72537861 2.78803858 30.97132752 4.57158896 24.20141602 6.25317383 Z " fill="#317601" transform="translate(4,12)"/>
<path d="M0 0 C4.79765866 2.39882933 7.565249 5.22414226 10 10 C10.65293024 15.22344192 9.845108 18.58517724 7 23 C3.32297423 26.40124883 0.71377437 27.83832317 -4.3125 28.3125 C-9.38552442 27.88258268 -11.99118703 25.66246591 -15.8125 22.5 C-18.66402267 18.89807662 -18.37947281 14.40188455 -18 10 C-14.19674018 2.53975959 -8.39570848 -1.64555886 0 0 Z " fill="#098B0B" transform="translate(49,26)"/>
<path d="M0 0 C0.8146875 0.41765625 1.629375 0.8353125 2.46875 1.265625 C4.70820136 2.90214715 5.49596576 4.19626074 6.5 6.75 C0.40249249 9.79875375 -4.98539219 9.99504976 -11.6875 9.55078125 C-16.91064603 9.32722247 -19.4243081 10.59444353 -23.5 13.75 C-28.12432461 17.04852515 -32.83108196 17.88699706 -38.3125 18.9375 C-39.63797852 19.20336914 -39.63797852 19.20336914 -40.99023438 19.47460938 C-43.15861506 19.90828551 -45.32833887 20.33312004 -47.5 20.75 C-47.5 19.43 -47.5 18.11 -47.5 16.75 C-44.86 16.75 -42.22 16.75 -39.5 16.75 C-39.190625 15.80125 -38.88125 14.8525 -38.5625 13.875 C-37.5 10.75 -37.5 10.75 -36.5 8.75 C-40.79 8.75 -45.08 8.75 -49.5 8.75 C-49.17 7.76 -48.84 6.77 -48.5 5.75 C-46.14973056 4.90337999 -43.95590201 4.27046735 -41.53515625 3.70703125 C-40.47414955 3.44704597 -40.47414955 3.44704597 -39.39170837 3.18180847 C-37.88758546 2.81675597 -36.38186306 2.45824227 -34.87475586 2.10571289 C-32.59854996 1.57096913 -30.32974456 1.01091383 -28.06054688 0.44726562 C-8.1440421 -4.38932139 -8.1440421 -4.38932139 0 0 Z " fill="#C6F948" transform="translate(58.5,17.25)"/>
<path d="M0 0 C-0.33 0.66 -0.66 1.32 -1 2 C-1.35061352 8.1941721 -0.41223694 11.8816446 3 17 C1.4188708 17.50692692 -0.16501383 18.00526443 -1.75 18.5 C-2.63171875 18.7784375 -3.5134375 19.056875 -4.421875 19.34375 C-7 20 -7 20 -11 20 C-11.37125 18.865625 -11.7425 17.73125 -12.125 16.5625 C-12.86637873 14.6185869 -12.86637873 14.6185869 -14 13 C-17.08369887 11.94250443 -17.08369887 11.94250443 -20 12 C-20.33 9.36 -20.66 6.72 -21 4 C-17.18664337 2.36468414 -13.41197547 1.26374135 -9.375 0.3125 C-8.24835937 0.04050781 -7.12171875 -0.23148438 -5.9609375 -0.51171875 C-3 -1 -3 -1 0 0 Z " fill="#48EA12" transform="translate(33,34)"/>
<path d="M0 0 C5.37382635 6.09033653 6.27090296 11.14381426 6 19 C4.39743892 19.50512244 2.79288208 20.00391627 1.1875 20.5 C0.29417969 20.7784375 -0.59914063 21.056875 -1.51953125 21.34375 C-4 22 -4 22 -7 22 C-6.93039063 21.12988281 -6.93039063 21.12988281 -6.859375 20.2421875 C-6.59778928 14.58072514 -7.17180622 11.46622607 -11 7 C-12.31584558 5.97709815 -13.64647262 4.97249236 -15 4 C-14.25234375 3.87882812 -13.5046875 3.75765625 -12.734375 3.6328125 C-11.74953125 3.46523438 -10.7646875 3.29765625 -9.75 3.125 C-8.77546875 2.96257813 -7.8009375 2.80015625 -6.796875 2.6328125 C-4.22735883 2.05144152 -2.27928944 1.29159735 0 0 Z " fill="#4AEA13" transform="translate(65,23)"/>
<path d="M0 0 C14.19 0 28.38 0 43 0 C43 0.33 43 0.66 43 1 C41.18242188 1.34611328 41.18242188 1.34611328 39.328125 1.69921875 C30.1204123 3.48090838 20.97389797 5.40943891 11.875 7.6875 C11.01680664 7.90172607 10.15861328 8.11595215 9.27441406 8.33666992 C5.028929 9.36863071 5.028929 9.36863071 1 11 C0.67 7.37 0.34 3.74 0 0 Z " fill="#4BEB13" transform="translate(7,14)"/>
<path d="M0 0 C6.68937834 -0.07636198 13.37864333 -0.12873047 20.06835938 -0.16479492 C22.34183961 -0.17983716 24.61529104 -0.20027603 26.88867188 -0.22631836 C30.16543711 -0.26290221 33.44181706 -0.27977248 36.71875 -0.29296875 C37.72740112 -0.30845261 38.73605225 -0.32393646 39.77526855 -0.33988953 C45.90088643 -0.34133479 50.40153574 0.48243334 56 3 C56 3.66 56 4.32 56 5 C52.53058454 4.54177532 49.32604951 4.10868317 46 3 C44.5735686 2.88677175 43.1427751 2.82404524 41.7121582 2.79467773 C40.85149246 2.77473251 39.99082672 2.75478729 39.1040802 2.73423767 C37.71644722 2.70916893 37.71644722 2.70916893 36.30078125 2.68359375 C35.35059616 2.66281265 34.40041107 2.64203156 33.4214325 2.62062073 C30.38519544 2.55521948 27.34887169 2.49628396 24.3125 2.4375 C22.25454831 2.39430583 20.19660541 2.35069124 18.13867188 2.30664062 C13.09253684 2.19954769 8.04631457 2.09825354 3 2 C3.66 6.29 4.32 10.58 5 15 C4.01 15.495 4.01 15.495 3 16 C2.49193553 14.27318563 1.99389533 12.54342021 1.5 10.8125 C1.08234375 9.36810547 1.08234375 9.36810547 0.65625 7.89453125 C0.03047092 5.13439851 -0.04974903 2.81289292 0 0 Z " fill="#03A005" transform="translate(4,12)"/>
<path d="M0 0 C0.99 0.33 1.98 0.66 3 1 C-4.30931475 7.92961009 -10.02352954 11.50843509 -20.33203125 11.23828125 C-23.79486629 10.92900901 -26.7299275 10.16269244 -30 9 C-26.9232803 6.94885354 -24.87346225 6.34788081 -21.30859375 5.52734375 C-20.19935547 5.26759766 -19.09011719 5.00785156 -17.94726562 4.74023438 C-16.78904297 4.47533203 -15.63082031 4.21042969 -14.4375 3.9375 C-12.14404037 3.40706591 -9.85104576 2.87461586 -7.55859375 2.33984375 C-6.54079834 2.10644287 -5.52300293 1.87304199 -4.47436523 1.63256836 C-2.01965361 1.09805368 -2.01965361 1.09805368 0 0 Z " fill="#48E813" transform="translate(63,55)"/>
<path d="M0 0 C-0.33 2.31 -0.66 4.62 -1 7 C-2.093125 7.226875 -3.18625 7.45375 -4.3125 7.6875 C-8.13666691 8.60295348 -8.13666691 8.60295348 -9.5 11.5625 C-9.995 12.366875 -10.49 13.17125 -11 14 C-14.6875 14.8125 -14.6875 14.8125 -18 15 C-17.6298852 8.83142002 -16.24224897 6.24224897 -12 2 C-8.3563904 -0.76411763 -4.39189536 -0.14639651 0 0 Z " fill="#057305" transform="translate(49,26)"/>
<path d="M0 0 C0.70125 0.00515625 1.4025 0.0103125 2.125 0.015625 C2.82625 0.01046875 3.5275 0.0053125 4.25 0 C6.125 0.265625 6.125 0.265625 8.125 2.265625 C8.390625 4.140625 8.390625 4.140625 8.375 6.265625 C8.38015625 6.966875 8.3853125 7.668125 8.390625 8.390625 C8.125 10.265625 8.125 10.265625 6.125 12.265625 C4.25 12.53125 4.25 12.53125 2.125 12.515625 C1.42375 12.52078125 0.7225 12.5259375 0 12.53125 C-1.875 12.265625 -1.875 12.265625 -3.875 10.265625 C-4.140625 8.390625 -4.140625 8.390625 -4.125 6.265625 C-4.13015625 5.564375 -4.1353125 4.863125 -4.140625 4.140625 C-3.75603481 1.4258707 -2.7147543 0.38459019 0 0 Z " fill="#46E811" transform="translate(42.875,33.734375)"/>
<path d="M0 0 C5.4359802 2.4159912 9.42340481 6.82916116 12.046875 12.10546875 C15.13032948 20.32316583 14.72592734 27.9602153 11.94921875 36.1875 C11 38 11 38 8 40 C7.67 39.34 7.34 38.68 7 38 C7.474375 36.88625 7.94875 35.7725 8.4375 34.625 C11.0750011 27.94008938 11.08771051 20.35727395 8.75 13.5625 C6.04783878 8.0616718 2.88198093 4.6614857 -2 1 C-1.34 0.67 -0.68 0.34 0 0 Z " fill="#3C8B02" transform="translate(60,16)"/>
<path d="M0 0 C3.0390625 -0.29296875 3.0390625 -0.29296875 6.625 -0.1875 C7.81351563 -0.16042969 9.00203125 -0.13335938 10.2265625 -0.10546875 C11.14179688 -0.07066406 12.05703125 -0.03585938 13 0 C11.125 5.75 11.125 5.75 10 8 C7.36 8 4.72 8 2 8 C2.33 9.216875 2.66 10.43375 3 11.6875 C3.80322213 14.87210604 4.20641973 17.6972843 4 21 C3.34 21.33 2.68 21.66 2 22 C1.49453964 19.91798472 0.99583165 17.83432933 0.5 15.75 C0.2215625 14.58984375 -0.056875 13.4296875 -0.34375 12.234375 C-1 9 -1 9 -1 5 C2.3 5 5.6 5 9 5 C9 4.34 9 3.68 9 3 C5.37 3 1.74 3 -2 3 C-1.34 2.01 -0.68 1.02 0 0 Z " fill="#387B02" transform="translate(9,26)"/>
<path d="M0 0 C3.7395549 2.71967629 4.26900833 6.68126758 5 11 C5.125 14 5.125 14 5 16 C4.34 16.33 3.68 16.66 3 17 C2.49453964 14.91798472 1.99583165 12.83432933 1.5 10.75 C1.2215625 9.58984375 0.943125 8.4296875 0.65625 7.234375 C0 4 0 4 0 0 Z " fill="#1EAD02" transform="translate(8,31)"/>
<path d="M0 0 C3 2 3 2 3.73046875 5.0390625 C3.88128906 6.22242188 4.03210938 7.40578125 4.1875 8.625 C4.34605469 9.81351563 4.50460938 11.00203125 4.66796875 12.2265625 C4.77753906 13.14179688 4.88710937 14.05703125 5 15 C4.01 15.495 4.01 15.495 3 16 C2.49193553 14.27318563 1.99389533 12.54342021 1.5 10.8125 C1.08234375 9.36810547 1.08234375 9.36810547 0.65625 7.89453125 C0.03322392 5.14654124 -0.12302812 2.80401584 0 0 Z " fill="#1EAD02" transform="translate(4,12)"/>
<path d="M0 0 C1.27875 -0.061875 2.5575 -0.12375 3.875 -0.1875 C4.95394531 -0.23970703 4.95394531 -0.23970703 6.0546875 -0.29296875 C6.69664063 -0.19628906 7.33859375 -0.09960938 8 0 C8.66 0.99 9.32 1.98 10 3 C7.03 3 4.06 3 1 3 C0.67 2.01 0.34 1.02 0 0 Z " fill="#008705" transform="translate(9,31)"/>
</svg>
