<?xml version="1.0" standalone="no"?>
<!DOCTYPE svg PUBLIC "-//W3C//DTD SVG 20010904//EN"
 "http://www.w3.org/TR/2001/REC-SVG-20010904/DTD/svg10.dtd">
<svg version="1.0" xmlns="http://www.w3.org/2000/svg"
 width="80.000000pt" height="80.000000pt" viewBox="0 0 80.000000 80.000000"
 preserveAspectRatio="xMidYMid meet">

<g transform="translate(0.000000,80.000000) scale(0.100000,-0.100000)"
fill="#000000" stroke="none">
<path d="M54 671 c5 -7 78 -11 224 -11 119 0 234 -5 254 -10 21 -6 56 -25 79
-43 151 -116 134 -341 -31 -431 -138 -75 -305 -24 -369 113 -22 46 -27 51 -58
51 -18 0 -33 -4 -33 -10 0 -5 13 -10 28 -10 24 0 32 -7 47 -39 41 -91 145
-154 255 -155 167 -1 291 132 278 298 -9 102 -64 181 -158 225 -53 24 -64 25
-289 29 -167 3 -231 1 -227 -7z"/>
<path d="M80 530 c0 -5 25 -10 56 -10 47 0 55 -3 52 -17 -2 -14 -15 -19 -51
-21 -58 -4 -53 -22 7 -22 39 0 44 3 59 35 9 20 17 38 17 40 0 3 -31 5 -70 5
-40 0 -70 -4 -70 -10z"/>
<path d="M403 529 c-35 -10 -80 -58 -89 -95 -17 -67 30 -146 96 -164 125 -34
223 100 153 208 -15 24 -86 62 -113 61 -8 0 -29 -5 -47 -10z m72 -69 c52 -20
52 -100 0 -120 -55 -21 -106 28 -86 83 9 22 24 35 58 46 1 1 13 -3 28 -9z"/>
</g>
</svg>
